<?xml version="1.0" encoding="UTF-8"?> <!-- Creator: CorelDRAW X7 --> <svg xmlns="http://www.w3.org/2000/svg" xmlns:xlink="http://www.w3.org/1999/xlink" xml:space="preserve" width="70mm" height="24.38mm" style="shape-rendering:geometricPrecision; text-rendering:geometricPrecision; image-rendering:optimizeQuality; fill-rule:evenodd; clip-rule:evenodd" viewBox="0 0 7000 2438"> <defs> <style type="text/css"> <![CDATA[ .fil1 {fill:#7FB9B5} .fil0 {fill:#7FB9B5;fill-rule:nonzero} ]]> </style> </defs> <g id="Слой_x0020_1"> <metadata id="CorelCorpID_0Corel-Layer"></metadata> <g id="_1091436986752"> <path class="fil0" d="M2761 1762l-87 0 -35 160 -34 -160 -87 0 -21 247 70 0 4 -88c1,-32 1,-61 -2,-94l39 157 61 0 40 -157c-2,36 -3,62 -1,94l5 88 70 0 -22 -247z"></path> <path id="1" class="fil0" d="M2932 1755c-75,0 -121,52 -121,131 0,83 46,131 121,131 76,0 121,-52 121,-131 0,-83 -45,-131 -121,-131zm0 53c30,0 45,23 45,78 0,54 -15,77 -45,77 -30,0 -44,-22 -44,-77 0,-54 14,-78 44,-78z"></path> <path id="2" class="fil0" d="M3205 1715c49,0 77,-29 81,-71l-41 -8c-6,20 -18,28 -40,28 -21,0 -34,-8 -39,-28l-41 8c4,42 31,71 80,71zm109 47l-75 0 -82 177c5,-18 10,-52 10,-87l0 -90 -70 0 0 247 75 0 82 -176c-5,18 -10,50 -10,89l0 87 70 0 0 -247z"></path> <path id="3" class="fil0" d="M3589 1755c-74,0 -121,54 -121,133 0,78 47,129 122,129 34,0 61,-11 84,-29l-32 -46c-18,12 -30,17 -48,17 -29,0 -49,-17 -49,-71 0,-56 18,-77 50,-77 17,0 31,5 47,17l32 -43c-24,-20 -51,-30 -85,-30z"></path> <path id="4" class="fil0" d="M3802 1755c-75,0 -120,52 -120,131 0,83 46,131 120,131 76,0 121,-52 121,-131 0,-83 -45,-131 -121,-131zm0 53c30,0 45,23 45,78 0,54 -15,77 -45,77 -29,0 -44,-22 -44,-77 0,-54 15,-78 44,-78z"></path> <polygon id="5" class="fil0" points="4178,1955 4178,1762 4104,1762 4104,1955 4041,1955 4041,1762 3967,1762 3967,2009 4155,2009 4164,2087 4215,2087 4215,1955 "></polygon> <path id="6" class="fil0" d="M4461 1762l-76 0 -81 177c5,-18 10,-52 10,-87l0 -90 -71 0 0 247 75 0 83 -176c-5,18 -10,50 -10,89l0 87 70 0 0 -247z"></path> <path id="7" class="fil0" d="M4715 1938l0 -96c0,-57 -31,-87 -103,-87 -28,0 -62,6 -93,18l17 48c25,-8 49,-13 65,-13 30,0 41,9 41,38l0 11 -25 0c-75,0 -115,29 -115,83 0,45 31,77 80,77 29,0 57,-9 74,-37 12,25 31,34 60,36l15 -48c-11,-4 -16,-11 -16,-30zm-112 27c-18,0 -28,-12 -28,-31 0,-25 16,-37 49,-37l18 0 0 44c-8,15 -21,24 -39,24z"></path> <path id="8" class="fil0" d="M4796 1762l-8 103c-6,77 -9,84 -37,97l18 53c69,-15 78,-48 87,-146l4 -53 47 0 0 193 74 0 0 -247 -185 0z"></path> <path id="9" class="fil0" d="M5129 1839l-17 0 0 -77 -74 0 0 247 102 0c60,0 105,-27 105,-84 0,-56 -34,-86 -116,-86zm3 122l-20 0 0 -75 16 0c31,0 42,13 42,37 0,26 -14,38 -38,38z"></path> <polygon id="10" class="fil0" points="5423,2009 5496,2009 5496,1762 5423,1762 5423,1857 5355,1857 5355,1762 5281,1762 5281,2009 5355,2009 5355,1911 5423,1911 "></polygon> <path id="11" class="fil0" d="M5640 1839l-13 0 0 -77 -73 0 0 247 97 0c60,0 105,-27 105,-84 0,-56 -34,-86 -116,-86zm136 -77l0 247 74 0 0 -247 -74 0zm-133 199l-16 0 0 -75 12 0c31,0 42,13 42,37 0,26 -14,38 -38,38z"></path> <path id="12" class="fil0" d="M6016 1715c49,0 77,-29 80,-71l-40 -8c-6,20 -19,28 -40,28 -21,0 -34,-8 -40,-28l-40 8c4,42 31,71 80,71zm109 47l-75 0 -82 177c5,-18 10,-52 10,-87l0 -90 -70 0 0 247 75 0 82 -176c-5,18 -10,50 -10,89l0 87 70 0 0 -247z"></path> <path id="13" class="fil0" d="M6445 1874c34,-6 52,-25 52,-52 0,-46 -41,-67 -107,-67 -31,0 -62,3 -97,10l0 244 104 0c65,0 111,-22 111,-74 0,-35 -20,-56 -63,-61zm-56 -72c23,0 35,9 35,28 0,20 -12,29 -32,29l-26 0 0 -57c9,0 15,0 23,0zm6 159l-29 0 0 -63 30 0c26,0 36,10 36,30 0,24 -14,33 -37,33z"></path> <path id="14" class="fil0" d="M6763 1881c0,-80 -43,-126 -113,-126 -75,0 -116,58 -116,132 0,77 42,130 124,130 40,0 72,-15 97,-34l-31 -41c-21,15 -39,22 -59,22 -30,0 -51,-12 -56,-56l153 0c1,-8 1,-19 1,-27zm-72 -18l-82 0c3,-44 18,-60 42,-60 30,0 40,24 40,57l0 3z"></path> <path id="15" class="fil0" d="M6912 1755c-74,0 -121,54 -121,133 0,78 46,129 122,129 34,0 61,-11 84,-29l-33 -46c-17,12 -29,17 -47,17 -29,0 -49,-17 -49,-71 0,-56 18,-77 50,-77 17,0 31,5 47,17l32 -43c-24,-20 -51,-30 -85,-30z"></path> <path class="fil1" d="M1267 45l541 308c183,105 395,180 395,419l4 622c0,211 41,433 -166,553l-537 314c-183,105 -354,252 -561,132l-193 -110 -581 148c-74,19 -113,-37 -99,-120l66 -386c-76,-61 -129,-140 -129,-259l-4 -622c0,-211 -41,-433 166,-553l537 -314c183,-105 354,-252 561,-132zm298 1414c0,63 -13,118 -41,166 -28,48 -65,87 -112,119 -48,32 -103,56 -166,72 -6,2 -12,3 -18,5l0 303c62,-27 122,-69 184,-105l412 -241c159,-92 127,-262 127,-424l-3 -478c0,-184 -163,-241 -303,-322l-415 -237 -2 -1 0 287c5,0 9,1 13,1 34,5 65,11 94,18 29,7 55,16 77,25 23,9 37,17 45,23 7,6 12,12 14,16 3,4 5,10 7,17 2,7 3,16 4,27 1,11 1,24 1,40 0,18 0,33 -2,46 -1,12 -3,22 -5,30 -3,8 -6,14 -11,18 -5,4 -11,5 -19,5 -8,0 -21,-4 -38,-13 -18,-8 -39,-18 -64,-28 -26,-10 -55,-19 -89,-28 -33,-8 -70,-12 -110,-12 -31,0 -58,3 -82,10 -23,6 -42,15 -57,27 -16,11 -28,25 -35,41 -8,16 -12,33 -12,51 0,26 9,49 26,69 17,19 40,37 68,52 29,15 62,29 98,42 36,14 73,28 111,42 38,15 75,32 111,51 37,19 69,42 98,68 28,26 51,57 68,93 18,35 26,77 26,125zm-583 379c-26,-2 -50,-4 -74,-8 -42,-7 -79,-15 -111,-25 -31,-10 -58,-20 -80,-31 -21,-10 -37,-20 -46,-28 -10,-8 -16,-20 -20,-35 -4,-15 -6,-37 -6,-65 0,-20 1,-35 2,-48 1,-13 4,-24 7,-32 3,-8 8,-14 13,-17 6,-4 12,-5 19,-5 10,0 25,5 43,15 19,10 43,22 72,34 29,13 64,24 104,34 40,11 87,16 140,16 35,0 66,-4 94,-11 28,-7 51,-17 70,-30 20,-13 34,-29 45,-48 10,-19 15,-40 15,-63 0,-28 -9,-51 -26,-70 -18,-20 -40,-37 -68,-52 -28,-15 -60,-30 -96,-43 -35,-13 -72,-27 -110,-42 -38,-15 -75,-32 -110,-51 -36,-18 -67,-41 -95,-67 -29,-26 -51,-57 -69,-94 -17,-35 -26,-78 -26,-128 0,-58 13,-108 38,-152 25,-43 59,-80 101,-108 43,-29 92,-51 150,-65 8,-2 16,-4 24,-5l0 -300c-61,27 -122,69 -183,105l-413 241c-159,92 -127,262 -127,424l3 478c0,70 25,147 67,195 33,39 54,51 44,109l-46 257c-12,63 29,36 85,22l383 -98c30,-9 54,-4 73,10 37,21 75,42 112,64l2 1 0 -284z"></path> <path class="fil0" d="M2810 544c-181,0 -314,98 -314,250 0,129 72,209 266,270 126,38 159,67 159,131 0,66 -53,106 -138,106 -86,0 -155,-31 -219,-85l-104 114c72,69 179,124 330,124 216,0 344,-112 344,-274 0,-160 -94,-228 -258,-281 -135,-42 -168,-65 -168,-120 0,-55 45,-85 117,-85 70,0 130,24 190,73l95 -112c-76,-72 -168,-111 -300,-111z"></path> <path id="1" class="fil0" d="M3664 544c-245,0 -391,171 -391,454 0,290 146,456 391,456 245,0 392,-171 392,-456 0,-289 -147,-454 -392,-454zm0 150c116,0 176,85 176,304 0,221 -59,306 -176,306 -113,0 -176,-85 -176,-306 0,-219 60,-304 176,-304z"></path> <path id="2" class="fil0" d="M4599 544c-225,0 -394,163 -394,453 0,297 159,457 397,457 120,0 214,-54 271,-111l-91 -118c-51,39 -101,70 -170,70 -115,0 -192,-89 -192,-298 0,-213 78,-302 189,-302 59,0 108,23 157,60l97 -116c-72,-61 -151,-95 -264,-95z"></path> <polygon id="3" class="fil0" points="5237,565 5031,565 5031,1433 5237,1433 "></polygon> <path id="4" class="fil0" d="M5815 544c-244,0 -390,171 -390,454 0,290 146,456 390,456 246,0 392,-171 392,-456 0,-289 -146,-454 -392,-454zm0 150c117,0 177,85 177,304 0,221 -59,306 -177,306 -112,0 -175,-85 -175,-306 0,-219 60,-304 175,-304z"></path> <path id="5" class="fil0" d="M6676 544c-181,0 -313,98 -313,250 0,129 71,209 265,270 127,38 159,67 159,131 0,66 -52,106 -138,106 -86,0 -155,-31 -219,-85l-104 114c72,69 179,124 330,124 216,0 344,-112 344,-274 0,-160 -94,-228 -258,-281 -135,-42 -168,-65 -168,-120 0,-55 45,-85 117,-85 70,0 130,24 190,73l95 -112c-76,-72 -168,-111 -300,-111z"></path> </g> </g> </svg> 