<?xml version="1.0" encoding="UTF-8"?> <!-- Generator: Adobe Illustrator 19.1.0, SVG Export Plug-In . SVG Version: 6.00 Build 0) --> <svg xmlns="http://www.w3.org/2000/svg" xmlns:xlink="http://www.w3.org/1999/xlink" id="Слой_1" x="0px" y="0px" viewBox="-247 370.9 100 100" style="enable-background:new -247 370.9 100 100;" xml:space="preserve"> <style type="text/css"> .st0{fill:#7FB9B5;} </style> <title>testМонтажная область 2</title> <path class="st0" d="M-162.6,405.5c-1.3-19-17.7-33.3-36.7-32c-18,1.2-32,16.2-32.1,34.2c0,1.4,0.1,2.7,0.2,4.1l-7,14.2 c-0.9,1.9-0.1,4.1,1.7,5c0.5,0.2,1,0.4,1.5,0.4c1.9,0.1,3.2,0.1,4.2,0.1v3.8c0,11.7,2.9,18.5,17.6,18.5l6.4,0.2v8 c0,0.8,0.7,1.5,1.5,1.5c0.8,0,1.5-0.7,1.5-1.5v-9.4c0-0.8-0.6-1.5-1.4-1.5l-7.9-0.3c-11.4,0-14.6-3.5-14.6-15.5v-5.3 c0-0.8-0.7-1.5-1.5-1.5c0,0-0.1,0-0.1,0h-0.2c-0.3,0-1.4,0-5.3-0.1c-0.3,0-0.5-0.1-0.6-0.4c-0.1-0.2-0.1-0.5,0-0.7l7.2-14.6 c0.1-0.3,0.2-0.6,0.1-0.9c-0.2-1.4-0.3-2.8-0.3-4.1c0-17.4,14-31.5,31.4-31.5s31.5,14,31.5,31.4c0,9-3.9,17.7-10.6,23.6 c-0.3,0.3-0.5,0.7-0.5,1.1v29.4c0,0.8,0.6,1.5,1.5,1.5c0,0,0,0,0,0c0.8,0,1.5-0.7,1.5-1.5V433C-165.9,426-161.9,415.8-162.6,405.5z"></path> <path class="st0" d="M-173.5,403.2l-6-5c-0.6-0.5-1.4-0.5-1.9,0l-6,5c-0.7,0.5-0.8,1.4-0.3,2.1c0.5,0.7,1.4,0.8,2.1,0.3 c0,0,0.1-0.1,0.1-0.1l3.5-2.9c0,0.1,0,0.2,0,0.2c-0.1,7.8-6.5,14.1-14.3,14.1c-3.8,0-7.4-1.5-10.1-4.1c-0.5-0.6-1.5-0.7-2.1-0.2 s-0.7,1.5-0.2,2.1c0.1,0.1,0.1,0.2,0.2,0.2c6.8,6.7,17.8,6.6,24.6-0.2c3.1-3.2,4.9-7.4,5-11.9c0-0.1,0-0.2,0-0.3l3.6,3 c0.6,0.6,1.6,0.5,2.1-0.1c0.6-0.6,0.5-1.6-0.1-2.1C-173.4,403.3-173.5,403.3-173.5,403.2L-173.5,403.2z"></path> <path class="st0" d="M-205.4,402.4c-0.5-0.6-1.5-0.7-2.1-0.2l-3.4,2.9c-0.1-0.6-0.1-1.1-0.1-1.7c0-8,6.4-14.5,14.3-14.5 c3.8,0,7.4,1.5,10.1,4.2c0.6,0.6,1.6,0.5,2.1-0.1c0.5-0.6,0.5-1.5,0-2c-3.2-3.3-7.6-5.1-12.2-5.1c-9.6,0.1-17.4,7.9-17.3,17.5 c0,0.6,0,1.3,0.1,1.9l-3.6-3c-0.7-0.5-1.6-0.4-2.1,0.3c-0.5,0.6-0.4,1.5,0.2,2l6,5c0.6,0.5,1.4,0.5,1.9,0l6-5 C-204.9,404.1-204.8,403.1-205.4,402.4C-205.3,402.5-205.3,402.4-205.4,402.4z"></path> </svg> 