<?xml version="1.0" encoding="UTF-8"?> <!-- Generator: Adobe Illustrator 19.1.0, SVG Export Plug-In . SVG Version: 6.00 Build 0) --> <svg xmlns="http://www.w3.org/2000/svg" xmlns:xlink="http://www.w3.org/1999/xlink" id="Слой_1" x="0px" y="0px" viewBox="-247 370.9 100 100" style="enable-background:new -247 370.9 100 100;" xml:space="preserve"> <style type="text/css"> .st0{fill:#7FB9B5;} </style> <title>testМонтажная область 21</title> <path class="st0" d="M-163.1,419.5c-0.1-0.1-0.3-0.2-0.4-0.2c-0.4-8.5-4.1-16.6-10.2-22.5c1.6-6.1,1.7-11.1,0.3-14.5 c-0.7-1.9-2.2-3.5-4.1-4.3c-3.3-1.4-7.8-0.5-13.2,2.8c-0.7,0.4-0.9,1.4-0.5,2.1c0.4,0.7,1.3,0.9,2,0.5c4.5-2.6,8.2-3.6,10.6-2.6 c1.1,0.5,2,1.5,2.4,2.6c1,2.5,1,6.4-0.1,11.1c-13.2-10.4-31.9-9.4-43.9,2.3l-0.2,0c-11.6-1.3-19.6,0.6-21.5,5 c-0.7,1.9-0.6,4,0.3,5.8c1.6,3.7,5.6,7.8,11.3,12c0,0.4,0,0.9,0,1.3c0,5.8,1.5,11.6,4.4,16.6c-0.1,0.1-0.2,0.3-0.2,0.4 c-2.4,10.5-1.2,17.6,3.5,19.8c1,0.5,2.1,0.7,3.1,0.7c3.5,0,7.7-2.1,12.2-5.7c13.2,4.4,27.6,0.2,36.4-10.6l0.9,0.1 c1.5,0.1,3,0.2,4.3,0.2c7.6,0,12.4-1.9,13.9-5.5C-150.1,432.4-154,426.2-163.1,419.5z M-197,390.4c7.3,0,14.3,2.6,19.9,7.4 c-0.9,2.9-1.9,5.8-3.1,8.5c-0.3,0.8,0,1.6,0.8,2c0.8,0.3,1.6,0,2-0.8c1.1-2.6,2-5,2.8-7.4c10,10.7,11,27.1,2.3,38.9 c-6.4-0.8-12.8-2.2-19-4.1c2.3-3.3,4.6-6.8,6.6-10.3c0.8-1.3,1.5-2.6,2.2-4c0.4-0.7,0.1-1.6-0.6-2c-0.7-0.4-1.6-0.1-2,0.6l0,0 c-0.7,1.3-1.4,2.6-2.1,3.9c-2.1,3.7-4.5,7.3-7,10.8c-2.4-0.8-4.9-1.7-7.5-2.7c-8.9-3.4-17.4-7.7-25.4-13 C-225.9,402.4-212.8,390.4-197,390.4z M-239,406.4c-0.6-1.1-0.7-2.3-0.3-3.4c1-2.4,6.4-4.2,16.4-3.4c-3.9,4.7-6.4,10.5-7.3,16.5 C-234.6,412.7-237.8,409.3-239,406.4L-239,406.4z M-203.1,434c2.3,0.9,4.5,1.7,6.7,2.4c-3.5,4.7-7.4,9-11.7,12.9 c-11.4-4.5-19.1-15.4-19.4-27.7C-219.8,426.6-211.6,430.7-203.1,434z M-221.5,455c-2.9-1.4-3.7-6.6-2.3-14.1 c3.4,4.6,7.9,8.2,13.1,10.5C-215,454.7-218.9,456.3-221.5,455L-221.5,455z M-197,451.4c-2.6,0-5.3-0.3-7.8-1c4.2-4,8.1-8.3,11.5-13 c6.1,1.9,12.3,3.4,18.6,4.3C-180.5,447.9-188.6,451.4-197,451.4z M-154.7,435.8c-1.1,2.7-6.4,4-14.3,3.5c3.2-4.9,5.1-10.5,5.4-16.4 C-156.9,428.1-153.6,433-154.7,435.8z"></path> <path class="st0" d="M-222.8,415.2c4.2,2.7,8.6,5,13.2,7.1c0.8,0.3,1.6-0.1,1.9-0.9c0.3-0.7,0-1.5-0.7-1.9c-4.4-2-8.7-4.3-12.8-6.9 c-0.7-0.4-1.6-0.2-2.1,0.5C-223.7,413.8-223.5,414.7-222.8,415.2L-222.8,415.2z"></path> <path class="st0" d="M-196.8,423.2c0.7,0.4,1.6,0.2,2.1-0.5c0.8-1.3,1.5-2.5,2.2-3.8c3.1-5.6,5.7-11.4,7.9-17.4 c0.2-0.8-0.3-1.6-1-1.8c-0.7-0.2-1.5,0.2-1.8,0.8c-2.1,5.9-4.7,11.5-7.7,17c-0.7,1.3-1.4,2.5-2.1,3.8 C-197.7,421.9-197.5,422.8-196.8,423.2z"></path> </svg> 