<?xml version="1.0" encoding="UTF-8"?> <!-- Generator: Adobe Illustrator 19.1.0, SVG Export Plug-In . SVG Version: 6.00 Build 0) --> <svg xmlns="http://www.w3.org/2000/svg" xmlns:xlink="http://www.w3.org/1999/xlink" id="Layer_1" x="0px" y="0px" viewBox="-247 370.1 100.8 100.8" style="enable-background:new -247 370.1 100.8 100.8;" xml:space="preserve"> <style type="text/css"> .st0{fill:#7FB9B5;} </style> <g> <path class="st0" d="M-164.5,392.4c0-0.1,0-0.1,0-0.2c0,0,0-0.1,0-0.1s0-0.1,0-0.1c0,0,0-0.1-0.1-0.1c0,0,0-0.1-0.1-0.1 c0,0-0.1-0.1-0.1-0.1c0,0-0.1-0.1-0.1-0.1c0,0-0.1-0.1-0.1-0.1c0,0-0.1-0.1-0.1-0.1c0,0-0.1-0.1-0.1-0.1c0,0-0.1,0-0.1-0.1 s-0.1,0-0.1-0.1s-0.1,0-0.1,0c0,0-0.1,0-0.1,0c0,0-0.1,0-0.1,0c-11.9-1.2-21.2-3.6-30.9-12c-0.6-0.5-1.6-0.5-2.1,0.1 c0,0-0.1,0.1-0.1,0.1c-9.7,8.4-17.8,10.6-29.2,11.7c-0.8,0.1-1.4,0.7-1.4,1.5v35.1c0,0.1,0,0.3,0.1,0.4 c6.1,22.4,30.6,33.1,31.7,33.5c0.2,0.1,0.4,0.1,0.6,0.1c0.2,0,0.4,0,0.6-0.1c1.1-0.4,25.9-11.1,32-33.5c0-0.1,0-0.2,0-0.2l0.1-1.2 c0,0,0-0.1,0-0.2L-164.5,392.4C-164.5,392.5-164.5,392.4-164.5,392.4z M-167.6,427.3c-5.3,19.1-25.9,29.4-29.6,31.2 c-3.7-1.7-24-12.1-29.3-31.1v-33.6c10.9-1.2,19.3-3.7,28.9-11.7c9.5,7.9,19,10.5,30.1,11.7v32.5L-167.6,427.3z"></path> <path class="st0" d="M-183,411h-1.4c-0.8-6.6-6.5-11.8-13.4-11.8s-12.6,5.2-13.4,11.8h-1.7c-0.8,0-1.5,0.7-1.5,1.5v22 c0,0.8,0.7,1.5,1.5,1.5h30c0.8,0,1.5-0.7,1.5-1.5v-22C-181.5,411.7-182.2,411-183,411z M-197.9,402.2c5.3,0,9.6,3.8,10.4,8.8h-20.8 C-207.5,406-203.1,402.2-197.9,402.2z M-184.5,414v19h-27v-19H-184.5z"></path> </g> </svg> 